<svg xmlns="http://www.w3.org/2000/svg" viewBox="0 0 680 160" role="img" aria-label="BioSure">
  <defs>
    <linearGradient id="biosureGradient" x1="0" y1="0" x2="1" y2="1">
      <stop offset="0" stop-color="#00c2a8" />
      <stop offset="1" stop-color="#0070f3" />
    </linearGradient>
    <filter id="softGlow" x="-20%" y="-20%" width="140%" height="140%">
      <feGaussianBlur stdDeviation="4" result="blur" />
      <feColorMatrix
        in="blur"
        type="matrix"
        values="1 0 0 0 0  0 1 0 0 0  0 0 1 0 0  0 0 0 .22 0"
        result="glow"
      />
      <feMerge>
        <feMergeNode in="glow" />
        <feMergeNode in="SourceGraphic" />
      </feMerge>
    </filter>
  </defs>

  <rect width="680" height="160" fill="none" />

  <!-- Mark -->
  <g transform="translate(36 32)" filter="url(#softGlow)">
    <path
      d="M48 0C21.49 0 0 21.49 0 48s21.49 48 48 48 48-21.49 48-48S74.51 0 48 0Zm0 20c15.46 0 28 12.54 28 28S63.46 76 48 76 20 63.46 20 48 32.54 20 48 20Z"
      fill="url(#biosureGradient)"
      opacity="0.95"
    />
    <path
      d="M48 36c6.63 0 12 5.37 12 12s-5.37 12-12 12-12-5.37-12-12 5.37-12 12-12Z"
      fill="url(#biosureGradient)"
    />
  </g>

  <!-- Wordmark -->
  <g transform="translate(160 40)">
    <text
      x="0"
      y="72"
      font-family="ui-sans-serif, system-ui, -apple-system, Segoe UI, Roboto, Helvetica, Arial, \"Apple Color Emoji\", \"Segoe UI Emoji\""
      font-size="72"
      font-weight="700"
      letter-spacing="-1.2"
      fill="url(#biosureGradient)"
    >
      BioSure
    </text>
    <rect x="2" y="92" width="190" height="6" rx="3" fill="url(#biosureGradient)" opacity="0.55" />
  </g>
</svg>

